<?xml version="1.0" encoding="utf-8"?>
<!-- Generator: Adobe Illustrator 18.1.1, SVG Export Plug-In . SVG Version: 6.00 Build 0)  -->
<svg version="1.1" id="Слой_1" xmlns="http://www.w3.org/2000/svg" xmlns:xlink="http://www.w3.org/1999/xlink" x="0px" y="0px"
	 viewBox="0 0 595.3 841.9" enable-background="new 0 0 595.3 841.9" xml:space="preserve">
<g>
	<path fill="#D1191E" d="M304.5,641c-1.1-1.9-2.1-3.4-3-5C267.7,575.8,234,515.6,200,455.5c-3.2-5.6-7.6-10.4-11.6-15.5
		c-24.5-31.5-35.9-67.1-31.3-106.8c6.9-59.9,38.8-102.3,94.8-123.8c88.5-34.1,181.9,22.2,198,111.2c8.5,47-3.6,88.6-34.2,125
		c-2.2,2.6-4.3,5.5-6,8.6c-34.1,60.6-68.1,121.2-102.2,181.9C306.7,637.5,305.7,639,304.5,641z M304.9,469.7
		c67.6,0,123-55.2,123.1-122.7c0.1-68.2-55.2-123.7-123.1-123.8c-67.7,0-123,55.4-122.9,123.3C182,414.5,237,469.7,304.9,469.7z"/>
	<path fill="#FFFFFF" d="M304.9,469.7c-67.9,0-123-55.1-123-123.1c0-67.9,55.2-123.3,122.9-123.3c67.9,0,123.2,55.6,123.1,123.8
		C427.9,414.4,372.5,469.7,304.9,469.7z M233.1,405.5c0-39.9,0-79.5,0-119c-6.5,0-12.6,0-18.4,0c0,39.9,0,79.5,0,119
		C221,405.5,226.9,405.5,233.1,405.5z M324.7,286.2c0.8,2.5,1.3,4.4,2,6.3c5.5,16.4,11,32.7,16.3,49.2c0.8,2.6,0.7,5.9,0,8.6
		c-2.5,8.4-5.5,16.7-8.2,25.1c-3.3,9.9-6.6,19.8-10,30.1c6.7,0,12.8,0,19.1,0c5.3-15.9,10.3-32,16.1-47.7c3-8,3.2-15.2,0.1-23.4
		c-6-15.8-10.9-32-16.3-48.1C337.4,286.2,331.4,286.2,324.7,286.2z M283.4,286.1c-5.4,0-10,0.3-14.6-0.1c-3.5-0.3-4.8,1.1-5.9,4.3
		c-5.8,17.5-11.9,34.9-17.7,52.4c-0.7,2-0.6,4.6,0,6.6c3.8,11.7,7.8,23.3,11.8,35c2.4,7.2,4.9,14.3,7.3,21.1c6.6,0,12.5,0,18.8,0
		c-0.6-2.1-1.1-3.9-1.7-5.6c-5.7-16.7-11.6-33.3-17.1-50c-0.8-2.3-0.8-5.3-0.1-7.5c4.6-14,9.6-28,14.4-42
		C280.3,295.8,281.8,291.2,283.4,286.1z M383.7,405.6c6.5-19.4,13-38.8,19.3-58.2c0.5-1.4-0.1-3.2-0.5-4.7
		c-4.1-12.5-8.3-24.9-12.5-37.4c-2.1-6.4-4.3-12.8-6.3-18.9c-6.6,0-12.5,0-18.8,0c0.6,2.1,1,3.8,1.5,5.5
		c5.4,16.2,10.7,32.5,16.3,48.7c1.3,3.9,1.2,7.2-0.1,11c-5.6,16.2-10.9,32.4-16.3,48.7c-0.5,1.7-0.9,3.4-1.5,5.3
		C371.3,405.6,377.1,405.6,383.7,405.6z M284.6,375.6c5.3,0,10-0.2,14.6,0.1c3.4,0.2,4.9-0.9,6-4.2c4.8-15.2,10-30.3,15-45.4
		c1-3.1,2-6.2,3.1-9.8c-5.4,0-10,0.2-14.7-0.1c-3.3-0.2-4.6,1.2-5.6,4.1c-3.9,12.2-8.1,24.3-12.1,36.4
		C288.9,362.8,286.9,368.9,284.6,375.6z"/>
	<path fill="#D1191E" d="M233.1,405.5c-6.1,0-12,0-18.4,0c0-39.5,0-79,0-119c5.8,0,11.9,0,18.4,0C233.1,326,233.1,365.6,233.1,405.5
		z"/>
	<path fill="#D1191E" d="M324.7,286.2c6.8,0,12.7,0,19,0c5.4,16.1,10.3,32.3,16.3,48.1c3.1,8.1,2.9,15.3-0.1,23.4
		c-5.8,15.7-10.8,31.8-16.1,47.7c-6.3,0-12.4,0-19.1,0c3.4-10.3,6.7-20.2,10-30.1c2.8-8.4,5.8-16.6,8.2-25.1c0.8-2.7,0.9-5.9,0-8.6
		c-5.2-16.5-10.8-32.8-16.3-49.2C326,290.6,325.4,288.8,324.7,286.2z"/>
	<path fill="#D1191E" d="M283.4,286.1c-1.7,5.1-3.1,9.7-4.6,14.2c-4.8,14-9.8,27.9-14.4,42c-0.8,2.3-0.7,5.3,0.1,7.5
		c5.6,16.7,11.4,33.3,17.1,50c0.6,1.7,1,3.4,1.7,5.6c-6.3,0-12.2,0-18.8,0c-2.3-6.8-4.8-13.9-7.3-21.1c-4-11.6-8-23.3-11.8-35
		c-0.7-2-0.7-4.6,0-6.6c5.8-17.5,11.9-34.9,17.7-52.4c1-3.2,2.3-4.6,5.9-4.3C273.4,286.4,278.1,286.1,283.4,286.1z"/>
	<path fill="#D1191E" d="M383.7,405.6c-6.6,0-12.4,0-18.8,0c0.5-2,0.9-3.7,1.5-5.3c5.4-16.2,10.7-32.5,16.3-48.7
		c1.3-3.8,1.4-7.2,0.1-11c-5.6-16.2-10.9-32.4-16.3-48.7c-0.6-1.7-1-3.4-1.5-5.5c6.4,0,12.3,0,18.8,0c2,6.1,4.2,12.5,6.3,18.9
		c4.2,12.4,8.4,24.9,12.5,37.4c0.5,1.5,1,3.4,0.5,4.7C396.7,366.8,390.2,386.1,383.7,405.6z"/>
	<path fill="#D1191E" d="M284.6,375.6c2.2-6.7,4.3-12.8,6.3-18.9c4.1-12.1,8.2-24.2,12.1-36.4c1-2.9,2.2-4.3,5.6-4.1
		c4.6,0.3,9.3,0.1,14.7,0.1c-1.1,3.6-2.1,6.7-3.1,9.8c-5,15.1-10.2,30.2-15,45.4c-1.1,3.3-2.5,4.5-6,4.2
		C294.6,375.4,290,375.6,284.6,375.6z"/>
</g>
</svg>
